<?xml version="1.0" encoding="UTF-8" standalone="no"?>
<svg
   width="640"
   height="480"
   version="1.1"
   id="svg20"
   sodipodi:docname="circuit.svg"
   inkscape:version="1.4.2 (ebf0e940d0, 2025-05-08)"
   xmlns:inkscape="http://www.inkscape.org/namespaces/inkscape"
   xmlns:sodipodi="http://sodipodi.sourceforge.net/DTD/sodipodi-0.dtd"
   xmlns="http://www.w3.org/2000/svg"
   xmlns:svg="http://www.w3.org/2000/svg">
  <defs
     id="defs20" />
  <sodipodi:namedview
     id="namedview20"
     pagecolor="#ffffff"
     bordercolor="#000000"
     borderopacity="0.25"
     inkscape:showpageshadow="2"
     inkscape:pageopacity="0.0"
     inkscape:pagecheckerboard="0"
     inkscape:deskcolor="#d1d1d1"
     inkscape:zoom="2.8284271"
     inkscape:cx="337.46671"
     inkscape:cy="247.3106"
     inkscape:window-width="1920"
     inkscape:window-height="1031"
     inkscape:window-x="0"
     inkscape:window-y="25"
     inkscape:window-maximized="1"
     inkscape:current-layer="g36" />
  <path
     fill="#ff0"
     d="M 377.4 93 L 288.8 86.8 L 245.4 58 L 175.4 45 L 78.4 61 L 43.4 99 L 30.4 175 L 18.4 253 L 64.4 320 L 75.4 409.6 L 136.8 461.6 L 261.4 452 L 359.4 454 L 398.4 405 L 449.4 368 L 489.4 355 L 583.4 409 L 619.4 401 L 628.4 358 L 607.4 303 L 546.4 284 L 487.4 257 L 477.4 199 L 534.4 169 L 583.4 120 L 560.4 57 L 506.4 26 L 450.4 37 L 406.4 72"
     id="path1"
     inkscape:label="land" />
  <path
     fill="#0f0"
     d="M 105 141.4 L 124 110.4 L 211 101.6 L 308.4 115.6 L 400.6 109.2 L 478 88.4 L 504 112.4 L 466 159.4 L 421 204.4 L 437 245.4 L 523 289.4 L 551 293.4 L 594 312.4 L 616 352.4 L 616 389.4 L 600 397.4 L 573 395.4 L 547 391.4 L 485 349.4 L 438 347.4 L 404 368.4 L 339 403.4 L 277 434.4 L 191 425.4 L 124 391.4 L 95 362.4 L 89 305.4 L 69 265.4 L 67 249.4 L 69 222.4 L 90 202.4 L 103.6 170.4 Z"
     id="path2"
     inkscape:label="grass" />
  <path
     d="m 446.5,276.8 20.3,11.6 12.4,12.4 -8.4,8.8 -40,20.4 -19.6,-6.4 -11.2,-24 z"
     id="path21"
     style="fill:#007f00;fill-opacity:1"
     inkscape:label="shade1" />
  <path
     d="m 336.5,123.6 20.3,11.6 v 24.4 H 276 l -20.8,-9.2 v -26.8 z"
     id="path3"
     style="fill:#007f00;fill-opacity:1"
     inkscape:label="shade2" />
  <path
     fill="#7f7f7f"
     d="M 182.6 168.2 L 156.4 177 L 136.2 193.4 L 122.2 215.4 L 117 237.55 L 139.3 237.3 L 147.6 218.4 L 160.4 202 L 183.8 190.8 L 207 186.8 L 207.3 165.55 Z"
     id="path4"
     inkscape:label="road_1" />
  <path
     d="m 207,186.8 0.3,-21.25 45.5,0.05 v 21.2 z"
     id="path22"
     style="stroke:none;stroke-opacity:1;fill:#7f7f7f;fill-opacity:1"
     inkscape:label="road_2" />
  <path
     d="m 252.8,186.8 v -21.2 l 45.6,-0.2 v 21.2 z"
     id="path24"
     style="fill:#7f7f7f;fill-opacity:1"
     inkscape:label="road_3" />
  <path
     d="m 82,323.5 h 21.1 l -0.05,36.5 -21.25,0.1 z"
     id="path6"
     style="fill:#7f7f7f;fill-opacity:1" />
  <path
     d="m 298.4,186.6 v -21.2 l 45.8,-0.2 -0.1,21.3 z"
     id="path7"
     style="fill:#7f7f7f;fill-opacity:1"
     inkscape:label="road_4" />
  <path
     d="m 421.3,214.3 -14,-23.7 -20.3,-16.3 -24.5,-9 -18.3,-0.1 -0.1,21.3 20.9,4.1 18.6,9.1 15.9,20.6 9.4,22.35 20.7,-4.6 z"
     id="path26"
     style="fill:#7f7f7f;fill-opacity:1"
     inkscape:label="road_5" />
  <path
     fill="#7f7f7f"
     d="M 408.9 242.65 L 411 253 L 407.5 255.7 L 397.1 237.3 L 376.1 222.3 L 345.1 219.2 L 347.7 241.2 L 370.7 246.2 L 386.5 263.2 L 397.2 281.2 L 413.8 287.3 L 428 279 L 435 260.8 L 429.6 238.05 Z"
     id="path11"
     inkscape:label="road_6" />
  <path
     d="m 323.3,222.5 -26.2,8.8 -20.2,16.4 -14,22 -4.9,22.45 22.25,-0.3 8.05,-19.15 12.8,-16.4 23.4,-11.2 23.2,-3.9 -2.6,-22 z"
     id="path10"
     style="fill:#7f7f7f;fill-opacity:1"
     inkscape:label="road_7" />
  <path
     fill="#7f7f7f"
     d="M 258 292.15 L 256.6 312.6 L 247 330.4 L 232.4 347.3 L 223.4 363.4 L 222.75 378.1 L 244.35 378.1 L 246.7 362.1 L 260 349.4 L 269.6 336.4 L 279.6 317.4 L 280.25 291.85 Z"
     id="path9"
     inkscape:label="road_8" />
  <path
     fill="#7f7f7f"
     d="M 178.9 447.6 L 205.1 438.8 L 225.3 422.4 L 239.3 400.4 L 244.35 378.1 L 222.75 378.1 L 213.9 397.4 L 201.1 413.8 L 177.7 425 L 153.9 428.5 L 154 450.3 Z"
     id="path8"
     inkscape:label="road_9" />
  <path
     d="m 84.3,384.7 8.8,26.2 16.4,20.2 22,14 22.5,5.2 -0.1,-21.8 -19.4,-8.9 -16.4,-12.8 -11.2,-23.4 -3.85,-23.4 -21.25,0.1 z"
     id="path25"
     style="fill:#7f7f7f;fill-opacity:1"
     inkscape:label="road_10" />
  <path
     d="m 117,237.55 -1.6,20.25 -9.6,17.8 -14.6,16.9 -9,16.1 -0.2,14.9 h 21.1 l 2.4,-16.2 13.3,-12.7 9.6,-13 10,-19 0.9,-25.3 z"
     id="path5"
     style="stroke:none;stroke-opacity:1;fill:#7f7f7f;fill-opacity:1"
     inkscape:label="road_11" />
  <g
     id="g36"
     inkscape:label="trees">
    <path
       d="m 156.9,413 3,-14.5 16.7,-3.8 9.6,8.3 -2.4,6.8 -5.6,10 -10.5,3.9 -4,-6.6 z"
       id="path31"
       style="fill:#c3ff00;fill-opacity:1"
       inkscape:label="tree_0" />
    <path
       d="m 161.7,221 3,-14.5 16.7,-3.8 9.6,8.3 -2.4,6.8 -5.6,10 -10.5,3.9 -4,-6.6 z"
       id="path30"
       style="fill:#c3ff00;fill-opacity:1"
       inkscape:label="tree_1" />
    <path
       d="m 314.6,278.6 -4,-14.2 13,-11 12.4,2.8 1,7.2 -0.3,11.4 -7.6,8.3 -6.5,-4 z"
       id="path29"
       style="fill:#c3ff00;fill-opacity:1"
       inkscape:label="tree_2" />
    <path
       d="m 365,149 11,-9.8 15.6,6.8 2.8,12.4 -6,4 -10.4,4.8 -10.8,-3.2 0.8,-7.6 z"
       id="path12"
       style="fill:#c3ff00;fill-opacity:1"
       inkscape:label="tree_4" />
  </g>
  <path
     fill="red"
     d="M 111 313 L 109.6 307.2 L 115.6 306.8 L 116.4 312.4 Z M 247 317 L 245.6 311.2 L 251.6 310.8 L 252.4 316.4 Z M 156.1 426.1 L 154.8 420.4 L 160.8 420 L 161.6 425.6 Z M 325 253 L 323.6 247.2 L 329.6 246.8 L 330.4 252.4 Z M 407 256.5 L 405.6 250.8 L 411.6 250.4 L 412.4 256 Z M 176.1 201.3 L 174.8 195.6 L 180.8 195.2 L 181.6 200.8 Z"
     id="path13"
     inkscape:label="plots" />
  <path
     fill="#00f"
     d="M 258.5 150.6 L 258.4 124.8 L 332.4 124.4 L 332.4 150.8 Z"
     id="path14"
     inkscape:label="build1_terrace" />
  <path
     fill="#00007f"
     d="M 256.1 145.4 L 256 119.6 L 336.4 119.2 L 336.4 145.6 Z"
     id="path15"
     inkscape:label="build1" />
  <path
     fill="#ff7f00"
     d="M 133 183.4 L 140.8 175.2 L 144 180 L 136.4 186 Z M 160.2 171.2 L 150.2 176.6 L 148.6 171.1 L 157.6 167.7 Z M 177 167.3 L 166 169.8 L 166 164 L 175.6 163.2 Z M 128.1 298.2 L 136.3 290 L 139.6 294.8 L 131.7 300.8 Z M 144 276 L 143.1 287.5 L 137.5 286 L 139.5 276.3 Z M 269.3 241 L 277.5 232.8 L 280.8 237.6 L 272.9 243.6 Z M 298 225.4 L 288.4 231.8 L 286.1 226.5 L 295.1 222.1 Z M 316.2 220.9 L 304.7 223.9 L 302.6 218.6 L 313.1 217.2 Z"
     id="path16"
     inkscape:label="hay_blocks" />
  <path
     fill="#7f0000"
     d="M 400.1 299.6 L 446 276 L 459.2 299.2 L 411.2 323.6 Z"
     id="path17"
     inkscape:label="build2" />
  <path
     fill="red"
     d="M 407.3 311.6 L 401.6 300 L 446 277.6 L 452.8 288.4"
     id="path18"
     inkscape:label="build2_halfroof" />
  <path
     fill="#7f7f7f"
     d="M 424.9 326.4 L 421.2 318.8 L 449.6 304 L 454 311.1"
     id="path19"
     inkscape:label="build2_terrace" />
  <path
     fill="#bfbfbf"
     d="M 410 311.6 L 408.4 308.5 L 415.8 304.8 L 417.6 307.8"
     id="path20"
     inkscape:label="build2_chemney" />
</svg>
